<mxfile host="app.diagrams.net" agent="Mozilla/5.0 (Macintosh; Intel Mac OS X 10_15_7) AppleWebKit/537.36 (KHTML, like Gecko) Chrome/134.0.0.0 Safari/537.36" version="26.0.10">
  <diagram name="Page-1" id="cvQAgtKk_T6p_G8VbtNu">
    <mxGraphModel dx="2164" dy="1881" grid="1" gridSize="10" guides="1" tooltips="1" connect="1" arrows="1" fold="1" page="1" pageScale="1" pageWidth="850" pageHeight="1100" math="0" shadow="0">
      <root>
        <mxCell id="0" />
        <mxCell id="1" parent="0" />
        <mxCell id="KEFCfTargT9tUixsNKkg-7" value="" style="edgeStyle=orthogonalEdgeStyle;rounded=0;orthogonalLoop=1;jettySize=auto;html=1;" edge="1" parent="1" source="KEFCfTargT9tUixsNKkg-5" target="KEFCfTargT9tUixsNKkg-6">
          <mxGeometry relative="1" as="geometry" />
        </mxCell>
        <mxCell id="KEFCfTargT9tUixsNKkg-5" value="Tensor" style="rounded=1;whiteSpace=wrap;html=1;" vertex="1" parent="1">
          <mxGeometry x="40" width="190" height="110" as="geometry" />
        </mxCell>
        <mxCell id="KEFCfTargT9tUixsNKkg-6" value="Storage&lt;br&gt;Buffer" style="shape=cylinder3;whiteSpace=wrap;html=1;boundedLbl=1;backgroundOutline=1;size=15;" vertex="1" parent="1">
          <mxGeometry x="105" y="180" width="60" height="80" as="geometry" />
        </mxCell>
        <mxCell id="KEFCfTargT9tUixsNKkg-8" value="Compute&lt;br&gt;Device" style="shape=cube;whiteSpace=wrap;html=1;boundedLbl=1;backgroundOutline=1;darkOpacity=0.05;darkOpacity2=0.1;" vertex="1" parent="1">
          <mxGeometry x="-2.5" y="330" width="275" height="190" as="geometry" />
        </mxCell>
        <mxCell id="KEFCfTargT9tUixsNKkg-12" style="edgeStyle=orthogonalEdgeStyle;rounded=0;orthogonalLoop=1;jettySize=auto;html=1;entryX=0.5;entryY=0;entryDx=0;entryDy=0;" edge="1" parent="1" source="KEFCfTargT9tUixsNKkg-10" target="KEFCfTargT9tUixsNKkg-5">
          <mxGeometry relative="1" as="geometry" />
        </mxCell>
        <mxCell id="KEFCfTargT9tUixsNKkg-10" value="Context" style="shape=trapezoid;perimeter=trapezoidPerimeter;whiteSpace=wrap;html=1;fixedSize=1;" vertex="1" parent="1">
          <mxGeometry x="25" y="-190" width="220" height="110" as="geometry" />
        </mxCell>
        <mxCell id="KEFCfTargT9tUixsNKkg-14" style="edgeStyle=orthogonalEdgeStyle;rounded=0;orthogonalLoop=1;jettySize=auto;html=1;exitX=0.5;exitY=1;exitDx=0;exitDy=0;exitPerimeter=0;entryX=0.5;entryY=0.053;entryDx=0;entryDy=0;entryPerimeter=0;" edge="1" parent="1" source="KEFCfTargT9tUixsNKkg-6" target="KEFCfTargT9tUixsNKkg-8">
          <mxGeometry relative="1" as="geometry" />
        </mxCell>
      </root>
    </mxGraphModel>
  </diagram>
</mxfile>
